<?xml version="1.0" encoding="UTF-8" standalone="no"?>
<!DOCTYPE svg PUBLIC "-//W3C//DTD SVG 1.1//EN" "http://www.w3.org/Graphics/SVG/1.1/DTD/svg11.dtd">
<svg version="1.1" xmlns="http://www.w3.org/2000/svg" xmlns:xlink="http://www.w3.org/1999/xlink" preserveAspectRatio="xMidYMid meet" viewBox="0 0 640 640" width="640" height="640"><defs><path d="M231.21 248.31L193.84 224.29L215.37 211.82L252.74 235.85L291.19 213.59L312.12 227.04L273.67 249.3L311.04 273.32L289.51 285.78L252.14 261.76L213.69 284.02L192.76 270.57L231.21 248.31Z" id="abMNauAoR"></path><path d="M190.65 188.48L214.57 188.48L214.57 309.13L190.65 309.13L190.65 188.48Z" id="a596mUAzn"></path><path d="M288.91 188.48L312.83 188.48L312.83 309.13L288.91 309.13L288.91 188.48Z" id="atZNpc7ZE"></path><path d="M312.83 189.09L312.7 213.01L192.05 212.39L192.18 188.48L312.83 189.09Z" id="a49lklgdoI"></path><path d="M311.51 285.22L311.38 309.13L190.73 308.52L190.86 284.6L311.51 285.22Z" id="c2I9DnpnIE"></path><path d="M190.65 188.48L214.57 188.48L214.57 212.39L190.65 212.39L190.65 188.48Z" id="aoo35uuDP"></path><path d="M291.94 285.22L315.85 285.22L315.85 309.13L291.94 309.13L291.94 285.22Z" id="a3K3ToiPSH"></path><path d="M342.83 322.17L342.83 322.17L341.74 322.17L342.83 322.17Z" id="a1UbJlUuSc"></path></defs><g><g><g><use xlink:href="#abMNauAoR" opacity="1" fill="#151415" fill-opacity="1"></use></g><g><use xlink:href="#a596mUAzn" opacity="1" fill="#090909" fill-opacity="1"></use></g><g><use xlink:href="#atZNpc7ZE" opacity="1" fill="#111111" fill-opacity="1"></use></g><g><use xlink:href="#a49lklgdoI" opacity="1" fill="#171616" fill-opacity="1"></use></g><g><use xlink:href="#c2I9DnpnIE" opacity="1" fill="#0c0c0c" fill-opacity="1"></use></g><g><use xlink:href="#aoo35uuDP" opacity="1" fill="#fef9f9" fill-opacity="1"></use></g><g><use xlink:href="#a3K3ToiPSH" opacity="1" fill="#f9f5f5" fill-opacity="1"></use><g><use xlink:href="#a3K3ToiPSH" opacity="1" fill-opacity="0" stroke="#f9adf9" stroke-width="0" stroke-opacity="1"></use></g></g><g><use xlink:href="#a1UbJlUuSc" opacity="1" fill="#f9f7f7" fill-opacity="1"></use></g></g></g></svg>